<svg width="343" height="239" viewBox="0 0 343 239" fill="none" xmlns="http://www.w3.org/2000/svg">
<path d="M-26 230.499V232.271V238.36C-26 238.912 -25.5523 239.36 -25 239.36H349C349.552 239.36 350 238.912 350 238.36V1.41202C350 1.1481 349.872 0.933769 349.628 1.03467C345.495 2.74471 310.869 35.4881 293.29 53.2796C274.903 71.8889 264.335 58.1492 248.099 66.8665C227.96 77.6793 225.52 96.4238 204.976 106.445C190.015 113.743 190.249 106.566 163.625 116.783C137 127 141.384 149.753 121.387 164.632C108.404 174.293 85.1402 184.68 85.0576 184.717L85.0575 184.717C85.0556 184.718 85.0591 184.716 85.0572 184.717L85.057 184.717C84.9595 184.762 62.0573 195.149 47.8413 202.734C38.0506 207.958 23.2947 216.7 22.4755 217.186C22.4491 217.202 22.4329 217.212 22.408 217.23C21.6337 217.788 6.93876 228.3 -4.14297 230.499C-12.5155 232.16 -26 230.499 -26 230.499Z" fill="url(#paint0_linear_1_2326)"/>
<path d="M-26 232.271V230.499M-26 230.499C-26 230.499 -12.5155 232.16 -4.14297 230.499C6.93876 228.3 21.6337 217.788 22.408 217.23C22.4329 217.212 22.4491 217.202 22.4755 217.186C23.2947 216.7 38.0506 207.958 47.8413 202.734C62.0692 195.143 84.9979 184.744 85.0572 184.717C85.0591 184.716 85.0556 184.718 85.0575 184.717C85.117 184.691 108.398 174.297 121.387 164.632C141.384 149.753 137 127 163.625 116.783C190.249 106.566 190.015 113.743 204.976 106.445C225.52 96.4238 227.96 77.6793 248.099 66.8665C264.335 58.1492 274.903 71.8889 293.29 53.2796C310.869 35.4881 345.495 2.74471 349.628 1.03467C349.872 0.933769 350 1.1481 350 1.41202V238.36C350 238.912 349.552 239.36 349 239.36H-25C-25.5523 239.36 -26 238.912 -26 238.36V230.499Z" stroke="#3984FF" stroke-linejoin="round"/>
<circle cx="47.8409" cy="203.029" r="1.06756" fill="white" stroke="#3984FF" stroke-width="2"/>
<circle cx="121.682" cy="164.042" r="1.06756" fill="white" stroke="#3984FF" stroke-width="2"/>
<circle cx="163.624" cy="116.784" r="1.06756" fill="white" stroke="#3984FF" stroke-width="2"/>
<circle cx="204.975" cy="106.149" r="1.06756" fill="white" stroke="#3984FF" stroke-width="2"/>
<circle cx="248.689" cy="66.5709" r="1.06756" fill="white" stroke="#3984FF" stroke-width="2"/>
<circle cx="294.176" cy="52.3949" r="1.06756" fill="white" stroke="#3984FF" stroke-width="2"/>
<circle cx="340.844" cy="8.08943" r="1.06756" fill="white" stroke="#3984FF" stroke-width="2"/>
<defs>
<linearGradient id="paint0_linear_1_2326" x1="124.636" y1="53.575" x2="194.933" y2="234.929" gradientUnits="userSpaceOnUse">
<stop stop-color="#BDDFFF"/>
<stop offset="0.892781" stop-color="#BDDBFF" stop-opacity="0"/>
</linearGradient>
</defs>
</svg>
